[Header]                  # Header keywords are followed by a single value
FileType htr              # single word string
DataType HTRS             # Hierarchical translations followed by rotations and Scale
FileVersion 1             # integer
NumSegments   22        # integer
NumFrames   5          # integer
DataFrameRate    60      # integer
EulerRotationOrder ZYX    # one word string
CalibrationUnits mm   # one word string
RotationUnits Degrees     # one word string
GlobalAxisofGravity Y        # character, X or Y or Z
BoneLengthAxis Y
ScaleFactor 1.0000
[SegmentNames&Hierarchy]
#CHILD         PARENT
LowerTorso	GLOBAL
MidTorso1	LowerTorso
MidTorso2	MidTorso1
UpperTorso	MidTorso2
Neck	UpperTorso
Head	Neck
LCollar	UpperTorso
LUpArm	LCollar
LLowArm	LUpArm
LHand	LLowArm
RCollar	UpperTorso
RUpArm	RCollar
RLowArm	RUpArm
RHand	RLowArm
RThigh	LowerTorso
RLowLeg	RThigh
RFoot	RLowLeg
RToe	RFoot
LThigh	LowerTorso
LLowLeg	LThigh
LFoot	LLowLeg
LToe	LFoot
[BasePosition]
#SegmentName Tx, Ty, Tz, Rx, Ry, Rz, BoneLength
LowerTorso	245.858011	950.547112	300.901792	3.160114	-0.119681	0.216534	50.177140	
MidTorso1	0.000000	50.177140	0.000000	12.744977	0.544086	-1.233692	50.243103	
MidTorso2	0.000000	50.243103	0.000000	-8.561622	-5.666755	-0.324056	70.108070	
UpperTorso	0.000000	70.108070	0.000000	-7.840640	5.423498	1.565454	211.798493	
Neck	0.000000	211.798493	0.000000	3.763396	2.354772	0.143986	247.477358	
Head	0.000000	247.477358	0.000000	87.188098	-1.617490	-0.909978	97.755902	
LCollar	5.963899	207.774288	0.020038	-0.085181	3.120430	-88.053499	154.341182	
LUpArm	0.000000	154.341182	0.000000	17.609330	2.601210	1.098979	257.694232	
LLowArm	0.000000	257.694232	0.000000	-4.295116	-4.411555	-0.381267	245.288314	
LHand	0.000000	245.288314	0.000000	-1.254656	0.451892	-3.187610	143.943585	
RCollar	-6.407295	207.548200	-0.033576	-3.957489	-2.573361	89.782717	159.716168	
RUpArm	0.000000	159.716168	0.000000	10.569861	0.025507	1.593474	259.181013	
RLowArm	0.000000	259.181013	0.000000	2.433186	-0.094719	0.439860	254.783021	
RHand	0.000000	254.783021	0.000000	-2.521327	-1.940663	10.821380	138.724995	
RThigh	-104.582724	-43.868855	71.110148	1.186921	1.056410	177.271085	484.665755	
RLowLeg	0.000000	484.665755	0.000000	-9.413113	-2.560999	2.584420	338.943480	
RFoot	0.000000	338.943480	0.000000	38.119802	-1.210697	-2.462270	108.422675	
RToe	0.000000	108.422675	0.000000	62.205972	5.729825	0.107186	135.948299	
LThigh	104.514322	-44.027056	71.110540	1.887019	-3.794944	-176.973714	484.665500	
LLowLeg	0.000000	484.665500	0.000000	-9.413064	2.561022	-2.584327	338.944952	
LFoot	0.000000	338.944952	0.000000	38.119895	1.210631	2.462181	108.422417	
LToe	0.000000	108.422417	0.000000	62.206117	-5.729564	-0.107296	135.948400	
#Beginning of Data. Separated by tabs
[LowerTorso]
#Fr     Tx      Ty      Tz      Rx      Ry      Rz      SF
88	469.551056	-74.528008	101.727562	2.831921	-41.263039	2.699098	1.000000	
89	499.148651	-74.812538	111.278778	3.300146	-45.428375	2.770237	1.000000	
90	526.483521	-75.193619	120.563698	3.857157	-49.313988	2.494426	1.000000	
91	551.538635	-75.421997	129.375443	4.473247	-52.826382	1.883076	1.000000	
92	574.729797	-74.878571	137.669861	5.177849	-56.063309	1.066121	1.000000	
[MidTorso1]
#Fr     Tx      Ty      Tz      Rx      Ry      Rz      SF
88	0.000000	0.000000	0.000000	2.219885	-2.650706	1.675987	1.000000	
89	0.000000	0.000000	0.000000	2.307911	-2.759661	1.826202	1.000000	
90	0.000000	0.000000	0.000000	2.403536	-2.879179	1.985409	1.000000	
91	0.000000	0.000000	0.000000	2.523980	-3.006831	2.154337	1.000000	
92	0.000000	0.000000	0.000000	2.637590	-3.110761	2.311384	1.000000	
[MidTorso2]
#Fr     Tx      Ty      Tz      Rx      Ry      Rz      SF
88	0.000000	0.000000	0.000000	2.407457	-2.820433	1.030616	1.000000	
89	0.000000	0.000000	0.000000	2.511778	-2.948483	1.152569	1.000000	
90	0.000000	0.000000	0.000000	2.624778	-3.088143	1.280912	1.000000	
91	0.000000	0.000000	0.000000	2.763723	-3.236696	1.415067	1.000000	
92	0.000000	0.000000	0.000000	2.894297	-3.360195	1.541835	1.000000	
[UpperTorso]
#Fr     Tx      Ty      Tz      Rx      Ry      Rz      SF
88	0.000000	0.000000	0.000000	2.219574	-3.032068	0.845904	1.000000	
89	0.000000	0.000000	0.000000	2.308032	-3.179784	0.958631	1.000000	
90	0.000000	0.000000	0.000000	2.404149	-3.340229	1.076948	1.000000	
91	0.000000	0.000000	0.000000	2.525131	-3.511390	1.202184	1.000000	
92	0.000000	0.000000	0.000000	2.639082	-3.656387	1.322804	1.000000	
[Neck]
#Fr     Tx      Ty      Tz      Rx      Ry      Rz      SF
88	0.000000	0.000000	0.000000	-2.831524	-1.642057	4.043869	1.000000	
89	0.000000	0.000000	0.000000	-3.228165	-0.311972	3.996571	1.000000	
90	0.000000	0.000000	0.000000	-3.432400	0.946569	3.955563	1.000000	
91	0.000000	0.000000	0.000000	-3.484022	2.041472	3.898249	1.000000	
92	0.000000	0.000000	0.000000	-3.427642	2.969796	3.774044	1.000000	
[Head]
#Fr     Tx      Ty      Tz      Rx      Ry      Rz      SF
88	0.000000	0.000000	0.000000	-3.770133	-2.265649	0.412434	1.000000	
89	0.000000	0.000000	0.000000	-3.444749	-2.142753	0.379906	1.000000	
90	0.000000	0.000000	0.000000	-3.423683	-1.905414	0.386291	1.000000	
91	0.000000	0.000000	0.000000	-3.706377	-1.709297	0.433476	1.000000	
92	0.000000	0.000000	0.000000	-4.137062	-1.639653	0.503297	1.000000	
[LCollar]
#Fr     Tx      Ty      Tz      Rx      Ry      Rz      SF
88	0.000000	0.000000	0.000000	8.831456	2.287153	-14.405070	1.000000	
89	0.000000	0.000000	0.000000	9.933077	2.515290	-14.068394	1.000000	
90	0.000000	0.000000	0.000000	10.826215	2.660591	-13.643574	1.000000	
91	0.000000	0.000000	0.000000	11.518571	2.748017	-13.238394	1.000000	
92	0.000000	0.000000	0.000000	12.090859	2.818100	-12.926067	1.000000	
[LUpArm]
#Fr     Tx      Ty      Tz      Rx      Ry      Rz      SF
88	0.000000	0.000000	0.000000	19.064161	24.438976	-33.295010	1.000000	
89	0.000000	0.000000	0.000000	18.908072	20.953777	-33.599934	1.000000	
90	0.000000	0.000000	0.000000	18.387348	17.672014	-33.767170	1.000000	
91	0.000000	0.000000	0.000000	17.619261	14.659217	-33.785854	1.000000	
92	0.000000	0.000000	0.000000	16.557243	11.886508	-33.755116	1.000000	
[LLowArm]
#Fr     Tx      Ty      Tz      Rx      Ry      Rz      SF
88	0.000000	0.000000	0.000000	73.914886	-0.012033	-0.009051	1.000000	
89	0.000000	0.000000	0.000000	76.040451	-0.012153	-0.009500	1.000000	
90	0.000000	0.000000	0.000000	78.659660	-0.012278	-0.010058	1.000000	
91	0.000000	0.000000	0.000000	81.607567	-0.012389	-0.010693	1.000000	
92	0.000000	0.000000	0.000000	84.773293	-0.012471	-0.011380	1.000000	
[LHand]
#Fr     Tx      Ty      Tz      Rx      Ry      Rz      SF
88	0.000000	0.000000	0.000000	14.959958	-1.024776	1.660127	1.000000	
89	0.000000	0.000000	0.000000	14.573055	-0.379503	2.906221	1.000000	
90	0.000000	0.000000	0.000000	14.168842	-0.003363	3.887609	1.000000	
91	0.000000	0.000000	0.000000	13.751416	0.222677	4.543942	1.000000	
92	0.000000	0.000000	0.000000	13.424513	0.444736	4.865134	1.000000	
[RCollar]
#Fr     Tx      Ty      Tz      Rx      Ry      Rz      SF
88	0.000000	0.000000	0.000000	-0.404514	0.157294	21.251015	1.000000	
89	0.000000	0.000000	0.000000	-0.267236	0.103026	21.087168	1.000000	
90	0.000000	0.000000	0.000000	-0.422485	0.161849	20.963739	1.000000	
91	0.000000	0.000000	0.000000	-0.826985	0.315064	20.855797	1.000000	
92	0.000000	0.000000	0.000000	-1.346211	0.509030	20.709707	1.000000	
[RUpArm]
#Fr     Tx      Ty      Tz      Rx      Ry      Rz      SF
88	0.000000	0.000000	0.000000	-16.516798	-2.408406	50.251949	1.000000	
89	0.000000	0.000000	0.000000	-14.095814	-3.584564	49.196423	1.000000	
90	0.000000	0.000000	0.000000	-11.578384	-5.047753	48.171516	1.000000	
91	0.000000	0.000000	0.000000	-9.072306	-6.713562	47.159561	1.000000	
92	0.000000	0.000000	0.000000	-6.679052	-8.374810	46.182495	1.000000	
[RLowArm]
#Fr     Tx      Ty      Tz      Rx      Ry      Rz      SF
88	0.000000	0.000000	0.000000	61.340019	0.000012	0.000029	1.000000	
89	0.000000	0.000000	0.000000	63.051296	0.000012	0.000030	1.000000	
90	0.000000	0.000000	0.000000	65.054611	0.000012	0.000031	1.000000	
91	0.000000	0.000000	0.000000	67.392647	0.000012	0.000032	1.000000	
92	0.000000	0.000000	0.000000	70.052673	0.000011	0.000034	1.000000	
[RHand]
#Fr     Tx      Ty      Tz      Rx      Ry      Rz      SF
88	0.000000	0.000000	0.000000	14.625414	15.278476	-14.105839	1.000000	
89	0.000000	0.000000	0.000000	15.159352	14.123171	-13.601146	1.000000	
90	0.000000	0.000000	0.000000	15.692701	13.299025	-13.139125	1.000000	
91	0.000000	0.000000	0.000000	16.170708	12.713408	-12.793743	1.000000	
92	0.000000	0.000000	0.000000	16.566875	12.088528	-12.611511	1.000000	
[RThigh]
#Fr     Tx      Ty      Tz      Rx      Ry      Rz      SF
88	0.000000	0.000000	0.000000	30.233984	-20.672363	-32.918816	1.000000	
89	0.000000	0.000000	0.000000	32.762009	-18.763361	-32.190742	1.000000	
90	0.000000	0.000000	0.000000	34.702503	-16.315907	-29.926340	1.000000	
91	0.000000	0.000000	0.000000	36.008553	-13.748483	-26.485481	1.000000	
92	0.000000	0.000000	0.000000	36.754684	-11.212188	-22.333906	1.000000	
[RLowLeg]
#Fr     Tx      Ty      Tz      Rx      Ry      Rz      SF
88	0.000000	0.000000	0.000000	-12.578440	0.000001	-0.000005	1.000000	
89	0.000000	0.000000	0.000000	-12.321002	0.000001	-0.000005	1.000000	
90	0.000000	0.000000	0.000000	-13.403742	0.000001	-0.000005	1.000000	
91	0.000000	0.000000	0.000000	-15.723964	0.000000	-0.000006	1.000000	
92	0.000000	0.000000	0.000000	-18.995974	0.000000	-0.000007	1.000000	
[RFoot]
#Fr     Tx      Ty      Tz      Rx      Ry      Rz      SF
88	0.000000	0.000000	0.000000	-17.532692	4.295919	13.338832	1.000000	
89	0.000000	0.000000	0.000000	-17.921358	3.698830	11.281235	1.000000	
90	0.000000	0.000000	0.000000	-15.628301	2.930895	10.358423	1.000000	
91	0.000000	0.000000	0.000000	-11.883963	2.186033	10.273850	1.000000	
92	0.000000	0.000000	0.000000	-8.094692	1.489209	10.355299	1.000000	
[RToe]
#Fr     Tx      Ty      Tz      Rx      Ry      Rz      SF
88	0.000000	0.000000	0.000000	2.058174	0.000004	0.000001	1.000000	
89	0.000000	0.000000	0.000000	-0.449544	-0.000001	0.000000	1.000000	
90	0.000000	0.000000	0.000000	-2.338164	-0.000005	-0.000001	1.000000	
91	0.000000	0.000000	0.000000	-2.979154	-0.000006	-0.000001	1.000000	
92	0.000000	0.000000	0.000000	-2.499744	-0.000005	-0.000001	1.000000	
[LThigh]
#Fr     Tx      Ty      Tz      Rx      Ry      Rz      SF
88	0.000000	0.000000	0.000000	18.294645	7.399874	3.095064	1.000000	
89	0.000000	0.000000	0.000000	18.979191	3.253161	1.066223	1.000000	
90	0.000000	0.000000	0.000000	19.771345	-0.055597	-0.368330	1.000000	
91	0.000000	0.000000	0.000000	20.493914	-2.865576	-1.422519	1.000000	
92	0.000000	0.000000	0.000000	21.075615	-5.586985	-2.378032	1.000000	
[LLowLeg]
#Fr     Tx      Ty      Tz      Rx      Ry      Rz      SF
88	0.000000	0.000000	0.000000	-43.554607	0.000068	-0.000047	1.000000	
89	0.000000	0.000000	0.000000	-44.408306	0.000069	-0.000049	1.000000	
90	0.000000	0.000000	0.000000	-45.213932	0.000070	-0.000050	1.000000	
91	0.000000	0.000000	0.000000	-45.883579	0.000070	-0.000051	1.000000	
92	0.000000	0.000000	0.000000	-46.108849	0.000071	-0.000052	1.000000	
[LFoot]
#Fr     Tx      Ty      Tz      Rx      Ry      Rz      SF
88	0.000000	0.000000	0.000000	18.019503	2.447723	-7.479650	1.000000	
89	0.000000	0.000000	0.000000	19.077431	1.912399	-5.511731	1.000000	
90	0.000000	0.000000	0.000000	19.797226	1.659150	-4.598713	1.000000	
91	0.000000	0.000000	0.000000	20.250851	1.462961	-3.958691	1.000000	
92	0.000000	0.000000	0.000000	20.495062	1.107156	-2.959261	1.000000	
[LToe]
#Fr     Tx      Ty      Tz      Rx      Ry      Rz      SF
88	0.000000	0.000000	0.000000	12.600356	0.000035	0.000008	1.000000	
89	0.000000	0.000000	0.000000	12.176744	0.000034	0.000008	1.000000	
90	0.000000	0.000000	0.000000	12.048944	0.000034	0.000007	1.000000	
91	0.000000	0.000000	0.000000	12.001076	0.000033	0.000007	1.000000	
92	0.000000	0.000000	0.000000	11.826404	0.000033	0.000007	1.000000	
[EndOfFile]
